PathFileType	4	(X/Y/Z)	C:/Users/beibeiliu/ov580/test_trc/capture2\sequence.31_training_dense_right.trc
DataRate	CameraRate	NumFrames	NumMarkers	Units	OrigDataRate	OrigDataStartFrame	OrigNumFrames
120	120	8	19	mm	120	101	400
Frame#	Time	ThumbCMC			ThumbMCP			ThumbIP			ThumbTip			IndexMCP			IndexPIP			IndexTip			MiddleMCP			MiddlePIP			MiddleTip			RingMCP			RingPIP			RingTip			PinkyMCP			PinkyPIP			PinkyTip			BackHand1			BackHand2			BackHand3	
		X0	Y0	Z0	X1	Y1	Z1	X2	Y2	Z2	X3	Y3	Z3	X4	Y4	Z4	X5	Y5	Z5	X6	Y6	Z6	X7	Y7	Z7	X8	Y8	Z8	X9	Y9	Z9	X10	Y10	Z10	X11	Y11	Z11	X12	Y12	Z12	X13	Y13	Z13	X14	Y14	Z14	X15	Y15	Z15	X16	Y16	Z16	X17	Y17	Z17	X18	Y18	Z18	
100	0.833333	124.741	24.5285	38.6599	97.9268	29.7004	19.1084	82.9651	31.4568	-3.01227	77.2059	18.0871	-27.4876	132.093	10.5154	-32.4006	102.076	12.8043	-44.5923	81.6169	7.9113	-22.062	125.022	-10.0124	-33.7467	92.3661	-8.79959	-33.7686	84.402	-1.61052	-1.0977	119.613	-28.8095	-26.7428	88.7852	-20.6555	-20.336	95.4962	-10.5251	13.6526	117.196	-44.5809	-14.4646	91.0912	-31.3493	-10.2532	100.254	-18.338	19.5216	153.469	-27.8061	18.2374	156.335	-30.9808	48.6033	158.608	2.07946	30.8167	
101	0.841667	123.833	27.7762	34.789	98.6529	26.4067	16.0131	82.4719	32.1343	-8.1578	74.4103	23.2296	-26.6776	131.825	16.0425	-34.9176	104.207	14.6696	-45.9975	80.8728	8.56688	-20.3155	125.342	-8.57484	-36.261	95.5253	-6.39683	-36.2563	86.5282	-0.00418125	1.26827	120.575	-24.0518	-28.5781	90.9229	-20.1478	-20.565	95.8581	-9.23724	11.3155	119.99	-41.3729	-13.8428	92.7413	-30.0622	-8.13936	101.532	-15.9621	19.4279	154.827	-27.9022	20.4432	156.435	-25.3055	49.766	158.494	2.62141	30.05	
102	0.85	125.174	25.209	35.5571	98.3025	29.0388	17.1063	82.1155	32.4092	-8.16351	75.2817	21.315	-25.2894	134.105	13.8822	-33.4224	106.075	11.7107	-47.2642	81.9258	7.89515	-23.2177	128.35	-8.50122	-35.3933	94.3216	-8.26815	-35.4339	88.7887	-3.1227	2.96312	122.563	-26.6291	-26.9248	92.4244	-20.4249	-21.7088	96.0698	-9.74332	10.6967	118.76	-40.7997	-16.9303	93.6685	-31.2015	-8.17655	102.403	-17.923	19.3368	157.366	-25.5003	14.3862	159.739	-25.676	49.9457	159.46	3.45532	30.0046	
103	0.858333	124.704	29.0882	36.4926	99.301	27.9546	16.5262	85.0198	29.7958	-6.80581	76.1169	20.4486	-31.7734	133.136	11.5945	-36.4953	103.526	13.1466	-47.0408	81.475	11.1409	-23.0818	128.827	-10.4626	-35.3623	96.0406	-6.18164	-36.0627	89.0177	0.193777	-2.24675	122.092	-24.8173	-29.6673	93.9737	-22.2767	-22.0146	97.1142	-11.586	10.1773	119.452	-42.6816	-17.7621	95.0559	-31.3183	-10.3203	102.42	-15.9368	18.2675	159.164	-26.6256	15.1489	161.559	-22.4567	48.086	160.42	9.60825	29.5531	
104	0.866667	125.756	25.2755	36.2177	98.4907	31.1257	13.8278	86.1369	29.2659	-9.56287	78.3104	20.1994	-29.4493	135.408	17.3161	-35.4733	104.247	14.8458	-48.6547	83.4891	7.11603	-24.6608	129.485	-5.32803	-38.9584	97.7029	-8.89217	-37.6438	89.9794	-2.88678	-2.47135	123.582	-26.5072	-29.6462	93.9198	-18.6822	-21.986	99.2787	-12.2324	11.3819	123.71	-42.3911	-16.9223	95.7612	-31.9387	-9.24077	106.818	-12.4259	18.2511	161.018	-24.4746	18.1947	160.901	-22.8245	49.4112	159.231	5.91147	30.3798	
105	0.875	126.689	27.7029	33.8034	99.1533	30.8699	13.0962	84.9843	31.6092	-12.203	79.3532	19.508	-33.7013	135.518	16.2754	-37.5357	107.763	14.366	-48.9042	84.7302	8.63938	-28.2808	131.107	-7.3435	-37.7664	101.115	-9.00589	-39.8412	91.1771	-0.990843	-3.64052	123.325	-23.6864	-31.1076	95.44	-17.325	-21.9573	97.7713	-8.53682	7.88037	124.102	-41.3657	-17.1024	97.3705	-27.5113	-8.72244	106.785	-13.4418	16.7942	160.575	-23.846	15.4776	162.089	-19.4957	47.8926	159.525	9.94708	27.2905	
106	0.883333	126.281	32.2087	34.0146	100.598	32.9216	12.9927	87.674	31.6273	-13.485	80.9591	21.0668	-31.5504	136.602	12.8236	-36.8834	111.149	10.757	-49.1104	84.6304	6.7421	-26.9045	131.58	-10.3032	-37.649	99.6483	-9.54988	-38.1663	92.0135	-0.244457	-0.86139	125.571	-24.2165	-30.454	97.5358	-19.4769	-23.2431	99.1243	-7.22048	6.56829	125.35	-43.353	-14.7846	97.2006	-30.0045	-5.73942	106.315	-16.7637	19.1278	162.701	-27.7472	16.4504	162.263	-23.5212	49.8589	161.739	8.7969	26.8006	
107	0.891667	126.925	31.2577	34.0328	103.208	28.2857	10.9189	89.9509	30.2134	-15.0925	81.7378	22.2105	-35.6467	138.96	15.0479	-36.9438	108.506	15.0378	-49.336	84.6355	8.65128	-24.3689	132.792	-8.38173	-39.5061	101.911	-7.26393	-38.9664	91.664	-4.20632	-4.9055	127.158	-24.6161	-29.1701	95.9635	-21.6063	-19.9496	101.113	-7.74558	7.35976	123.408	-42.8147	-16.5485	98.4428	-31.2942	-9.77884	108.587	-12.4019	17.1605	161.683	-27.7558	17.4735	162.747	-20.6151	46.671	162.265	8.73394	29.1643	
